<svg width="55" height="55" viewBox="0 0 55 55" fill="none" xmlns="http://www.w3.org/2000/svg">
<g filter="url(#filter0_d_2_726)">
<path d="M11.261 7.26115C6.94762 11.5745 4.52441 17.4246 4.52441 23.5246C4.52441 29.6246 6.94762 35.4747 11.261 39.7881C15.5743 44.1014 21.4244 46.5246 27.5244 46.5246C33.6244 46.5246 39.4745 44.1014 43.7879 39.7881C48.1012 35.4747 50.5244 29.6246 50.5244 23.5246C50.5244 17.4246 48.1012 11.5745 43.7879 7.26115C39.4745 2.94781 33.6244 0.524602 27.5244 0.524599C21.4244 0.524602 15.5743 2.94781 11.261 7.26115ZM17.5651 24.9619C17.3742 24.9652 17.1846 24.9305 17.0073 24.8597C16.8301 24.789 16.6686 24.6837 16.5325 24.5499C16.3964 24.4161 16.2882 24.2565 16.2144 24.0805C16.1406 23.9044 16.1026 23.7155 16.1026 23.5246C16.1026 23.3337 16.1406 23.1448 16.2144 22.9687C16.2882 22.7927 16.3964 22.6331 16.5325 22.4993C16.6686 22.3655 16.8301 22.2602 17.0073 22.1895C17.1846 22.1187 17.3742 22.084 17.5651 22.0873H34.2189L28.5917 16.4602C28.3221 16.1906 28.1707 15.8249 28.1707 15.4437C28.1707 15.0624 28.3221 14.6968 28.5917 14.4272C28.8613 14.1576 29.2269 14.0062 29.6082 14.0062C29.9894 14.0062 30.3551 14.1576 30.6246 14.4272L38.7055 22.5081C38.9751 22.7777 39.1266 23.1434 39.1266 23.5246C39.1266 23.9058 38.9751 24.2715 38.7055 24.5411L30.6246 32.622C30.3551 32.8916 29.9894 33.043 29.6082 33.043C29.2269 33.043 28.8613 32.8916 28.5917 32.622C28.3221 32.3524 28.1707 31.9868 28.1707 31.6055C28.1707 31.2243 28.3221 30.8586 28.5917 30.589L34.2189 24.9619L17.5651 24.9619Z" fill="#F5FA6A" fill-opacity="0.6" shape-rendering="crispEdges"/>
</g>
<defs>
<filter id="filter0_d_2_726" x="0.524414" y="0.524658" width="54" height="54" filterUnits="userSpaceOnUse" color-interpolation-filters="sRGB">
<feFlood flood-opacity="0" result="BackgroundImageFix"/>
<feColorMatrix in="SourceAlpha" type="matrix" values="0 0 0 0 0 0 0 0 0 0 0 0 0 0 0 0 0 0 127 0" result="hardAlpha"/>
<feOffset dy="4"/>
<feGaussianBlur stdDeviation="2"/>
<feComposite in2="hardAlpha" operator="out"/>
<feColorMatrix type="matrix" values="0 0 0 0 0 0 0 0 0 0 0 0 0 0 0 0 0 0 0.25 0"/>
<feBlend mode="normal" in2="BackgroundImageFix" result="effect1_dropShadow_2_726"/>
<feBlend mode="normal" in="SourceGraphic" in2="effect1_dropShadow_2_726" result="shape"/>
</filter>
</defs>
</svg>
