<svg width="55" height="55" viewBox="0 0 55 55" fill="none" xmlns="http://www.w3.org/2000/svg">
<g filter="url(#filter0_d_2_727)">
<path d="M43.7903 39.7904C48.1036 35.477 50.5269 29.6269 50.5269 23.5269C50.5269 17.4269 48.1036 11.5768 43.7903 7.26346C39.477 2.95012 33.6268 0.526912 27.5269 0.526912C21.4269 0.526912 15.5767 2.95012 11.2634 7.26346C6.95006 11.5768 4.52686 17.4269 4.52685 23.5269C4.52686 29.6269 6.95006 35.477 11.2634 39.7904C15.5767 44.1037 21.4269 46.5269 27.5269 46.5269C33.6268 46.5269 39.477 44.1037 43.7903 39.7904ZM37.4862 22.0896C37.677 22.0863 37.8666 22.121 38.0439 22.1918C38.2212 22.2625 38.3826 22.3679 38.5188 22.5017C38.6549 22.6354 38.763 22.795 38.8368 22.971C38.9107 23.1471 38.9487 23.336 38.9487 23.5269C38.9487 23.7178 38.9107 23.9068 38.8368 24.0828C38.763 24.2588 38.6549 24.4184 38.5188 24.5522C38.3826 24.686 38.2212 24.7913 38.0439 24.862C37.8666 24.9328 37.677 24.9675 37.4862 24.9642H20.8324L26.4596 30.5914C26.7292 30.8609 26.8806 31.2266 26.8806 31.6078C26.8806 31.9891 26.7291 32.3547 26.4596 32.6243C26.19 32.8939 25.8243 33.0453 25.4431 33.0453C25.0619 33.0453 24.6962 32.8939 24.4266 32.6243L16.3457 24.5434C16.0761 24.2738 15.9247 23.9082 15.9247 23.5269C15.9247 23.1457 16.0761 22.78 16.3457 22.5104L24.4266 14.4295C24.6962 14.16 25.0619 14.0085 25.4431 14.0085C25.8243 14.0085 26.19 14.16 26.4596 14.4295C26.7291 14.6991 26.8806 15.0648 26.8806 15.446C26.8806 15.8273 26.7291 16.1929 26.4596 16.4625L20.8324 22.0896L37.4862 22.0896Z" fill="#F5FA6A" fill-opacity="0.6" shape-rendering="crispEdges"/>
</g>
<defs>
<filter id="filter0_d_2_727" x="0.526855" y="0.526855" width="54" height="54" filterUnits="userSpaceOnUse" color-interpolation-filters="sRGB">
<feFlood flood-opacity="0" result="BackgroundImageFix"/>
<feColorMatrix in="SourceAlpha" type="matrix" values="0 0 0 0 0 0 0 0 0 0 0 0 0 0 0 0 0 0 127 0" result="hardAlpha"/>
<feOffset dy="4"/>
<feGaussianBlur stdDeviation="2"/>
<feComposite in2="hardAlpha" operator="out"/>
<feColorMatrix type="matrix" values="0 0 0 0 0 0 0 0 0 0 0 0 0 0 0 0 0 0 0.25 0"/>
<feBlend mode="normal" in2="BackgroundImageFix" result="effect1_dropShadow_2_727"/>
<feBlend mode="normal" in="SourceGraphic" in2="effect1_dropShadow_2_727" result="shape"/>
</filter>
</defs>
</svg>
