<svg width="235" height="235" viewBox="0 0 235 235" fill="none" xmlns="http://www.w3.org/2000/svg">
<g filter="url(#filter0_d_3_9)">
<path d="M199.271 19.5957C200.413 20.7569 201.289 22.0938 201.898 23.522C202.47 24.9502 202.47 26.5117 202.812 28.1494V64.75C202.812 71.4912 197.366 76.9375 190.625 76.9375C183.884 76.9375 178.438 71.4912 178.438 64.75V57.6279L138.295 97.7324C133.801 102.265 126.603 102.531 121.766 98.3799L86.6885 68.5967L52.3045 98.3799C47.1972 102.76 39.5 102.15 35.1201 97.0469C30.7402 91.9434 31.3344 84.25 36.4417 79.8701L79.1094 43.3076C83.6797 39.3962 90.3828 39.3962 94.9531 43.3076L129.04 72.5195L161.185 40.375H154.062C147.321 40.375 141.875 34.9173 141.875 28.1875C141.875 21.4577 147.321 16 154.062 16H190.282C193.977 16 197.023 17.3536 199.232 19.5439L199.271 19.5957V19.5957ZM20 131.781C20 121.688 28.1847 113.5 38.2812 113.5H196.719C206.812 113.5 215 121.688 215 131.781V192.719C215 202.812 206.812 211 196.719 211H38.2812C28.1847 211 20 202.812 20 192.719V131.781ZM38.2812 192.719H56.5625C56.5625 182.626 48.3778 174.438 38.2812 174.438V192.719ZM38.2812 131.781V150.062C48.3778 150.062 56.5625 141.874 56.5625 131.781H38.2812ZM196.719 174.438C186.626 174.438 178.438 182.626 178.438 192.719H196.719V174.438ZM178.438 131.781C178.438 141.874 186.626 150.062 196.719 150.062V131.781H178.438ZM117.5 137.875C104.056 137.875 93.125 148.806 93.125 162.25C93.125 175.694 104.056 186.625 117.5 186.625C130.944 186.625 141.875 175.694 141.875 162.25C141.875 148.806 130.944 137.875 117.5 137.875Z" fill="#F5FA6A"/>
</g>
<defs>
<filter id="filter0_d_3_9" x="0" y="0" width="235" height="235" filterUnits="userSpaceOnUse" color-interpolation-filters="sRGB">
<feFlood flood-opacity="0" result="BackgroundImageFix"/>
<feColorMatrix in="SourceAlpha" type="matrix" values="0 0 0 0 0 0 0 0 0 0 0 0 0 0 0 0 0 0 127 0" result="hardAlpha"/>
<feOffset dy="4"/>
<feGaussianBlur stdDeviation="10"/>
<feComposite in2="hardAlpha" operator="out"/>
<feColorMatrix type="matrix" values="0 0 0 0 0 0 0 0 0 0 0 0 0 0 0 0 0 0 0.6 0"/>
<feBlend mode="normal" in2="BackgroundImageFix" result="effect1_dropShadow_3_9"/>
<feBlend mode="normal" in="SourceGraphic" in2="effect1_dropShadow_3_9" result="shape"/>
</filter>
</defs>
</svg>
