<svg width="263" height="198" viewBox="0 0 263 198" fill="none" xmlns="http://www.w3.org/2000/svg">
<g filter="url(#filter0_d_3_11)">
<path d="M20 35.75C20 24.848 28.92 16 39.9107 16H191.232C202.223 16 211.143 24.848 211.143 35.75V122.65C211.143 133.552 202.223 142.4 191.232 142.4H39.9107C28.92 142.4 20 133.552 20 122.65V35.75ZM67.7857 39.7V31.8H51.8571V39.7C51.8571 41.7952 51.018 43.8046 49.5245 45.2861C48.0309 46.7677 46.0051 47.6 43.8929 47.6H35.9286V63.4H43.8929C50.2296 63.4 56.3069 60.903 60.7877 56.4584C65.2684 52.0138 67.7857 45.9856 67.7857 39.7ZM147.429 79.2C147.429 70.8192 144.072 62.7816 138.098 56.8554C132.123 50.9293 124.02 47.6 115.571 47.6C107.122 47.6 99.0194 50.9293 93.045 56.8554C87.0707 62.7816 83.7143 70.8192 83.7143 79.2C83.7143 87.5808 87.0707 95.6184 93.045 101.545C99.0194 107.471 107.122 110.8 115.571 110.8C124.02 110.8 132.123 107.471 138.098 101.545C144.072 95.6184 147.429 87.5808 147.429 79.2ZM179.286 31.8H163.357V39.7C163.357 45.9856 165.874 52.0138 170.355 56.4584C174.836 60.903 180.913 63.4 187.25 63.4H195.214V47.6H187.25C185.138 47.6 183.112 46.7677 181.618 45.2861C180.125 43.8046 179.286 41.7952 179.286 39.7V31.8ZM67.7857 118.7C67.7857 112.414 65.2684 106.386 60.7877 101.942C56.3069 97.497 50.2296 95 43.8929 95H35.9286V110.8H43.8929C46.0051 110.8 48.0309 111.632 49.5245 113.114C51.018 114.595 51.8571 116.605 51.8571 118.7V126.6H67.7857V118.7ZM179.286 126.6V118.7C179.286 116.605 180.125 114.595 181.618 113.114C183.112 111.632 185.138 110.8 187.25 110.8H195.214V95H187.25C180.913 95 174.836 97.497 170.355 101.942C165.874 106.386 163.357 112.414 163.357 118.7V126.6H179.286ZM75.75 174C70.7041 174.002 65.7872 172.419 61.7039 169.479C57.6207 166.538 54.5808 162.391 53.0199 157.631C55.234 158.01 57.4959 158.2 59.8214 158.2H191.232C200.737 158.2 209.853 154.455 216.574 147.788C223.296 141.121 227.071 132.078 227.071 122.65V48.943C231.732 50.5774 235.766 53.6053 238.619 57.6094C241.472 61.6136 243.003 66.3969 243 71.3V122.65C243 129.393 241.661 136.071 239.059 142.301C236.458 148.531 232.645 154.192 227.838 158.96C223.03 163.728 217.324 167.511 211.043 170.091C204.762 172.672 198.03 174 191.232 174H75.75Z" fill="#F5FA6A"/>
</g>
<defs>
<filter id="filter0_d_3_11" x="0" y="0" width="263" height="198" filterUnits="userSpaceOnUse" color-interpolation-filters="sRGB">
<feFlood flood-opacity="0" result="BackgroundImageFix"/>
<feColorMatrix in="SourceAlpha" type="matrix" values="0 0 0 0 0 0 0 0 0 0 0 0 0 0 0 0 0 0 127 0" result="hardAlpha"/>
<feOffset dy="4"/>
<feGaussianBlur stdDeviation="10"/>
<feComposite in2="hardAlpha" operator="out"/>
<feColorMatrix type="matrix" values="0 0 0 0 0 0 0 0 0 0 0 0 0 0 0 0 0 0 0.6 0"/>
<feBlend mode="normal" in2="BackgroundImageFix" result="effect1_dropShadow_3_11"/>
<feBlend mode="normal" in="SourceGraphic" in2="effect1_dropShadow_3_11" result="shape"/>
</filter>
</defs>
</svg>
