<svg width="30" height="23" viewBox="0 0 30 23" fill="none" xmlns="http://www.w3.org/2000/svg">
<path d="M25.3961 1.90753C23.4837 1.02592 21.4337 0.374301 19.29 0.00376941C19.271 2.31031e-05 19.2512 0.00243736 19.2335 0.0106783C19.2158 0.0189193 19.2011 0.0325793 19.1913 0.0497664C18.9288 0.521235 18.6363 1.13581 18.4313 1.62133C16.1578 1.2741 13.8463 1.2741 11.5728 1.62133C11.3444 1.08324 11.087 0.558575 10.8015 0.0497664C10.7919 0.0323677 10.7772 0.0183987 10.7596 0.00972363C10.7419 0.00104856 10.7221 -0.00192014 10.7028 0.0012139C8.56035 0.371745 6.51041 1.02337 4.59672 1.90626C4.58025 1.91331 4.5663 1.92535 4.55672 1.94075C0.666832 7.7862 -0.399388 13.4873 0.124347 19.1168C0.125805 19.1306 0.129991 19.1439 0.136653 19.156C0.143315 19.1681 0.152311 19.1787 0.163096 19.1871C2.43352 20.8767 4.96588 22.1639 7.65413 22.9946C7.67287 23.0005 7.69291 23.0005 7.71164 22.9945C7.73038 22.9886 7.74692 22.9771 7.75913 22.9614C8.3376 22.1706 8.85022 21.3316 9.29158 20.4533C9.29771 20.4412 9.30124 20.428 9.30194 20.4145C9.30263 20.401 9.30048 20.3875 9.29562 20.3749C9.29076 20.3623 9.28331 20.3509 9.27377 20.3415C9.26423 20.3321 9.25283 20.3249 9.24033 20.3204C8.43286 20.0096 7.65049 19.6345 6.9004 19.1986C6.88692 19.1907 6.87557 19.1795 6.86735 19.1661C6.85913 19.1526 6.85431 19.1373 6.85332 19.1215C6.85233 19.1056 6.8552 19.0898 6.86167 19.0754C6.86814 19.061 6.87801 19.0484 6.8904 19.0389C7.0479 18.92 7.20539 18.7961 7.35539 18.6722C7.36889 18.661 7.38515 18.6539 7.40237 18.6517C7.41958 18.6494 7.43707 18.6521 7.45289 18.6594C12.3615 20.9132 17.6776 20.9132 22.5287 18.6594C22.5446 18.6516 22.5622 18.6486 22.5797 18.6507C22.5971 18.6527 22.6137 18.6597 22.6274 18.6709C22.7774 18.7961 22.9337 18.92 23.0924 19.0389C23.1049 19.0482 23.115 19.0606 23.1217 19.0749C23.1283 19.0892 23.1314 19.1049 23.1307 19.1208C23.13 19.1366 23.1254 19.152 23.1174 19.1656C23.1094 19.1791 23.0983 19.1905 23.0849 19.1986C22.3375 19.6381 21.56 20.0099 20.7437 20.3191C20.7312 20.3238 20.7198 20.3311 20.7103 20.3406C20.7007 20.3501 20.6933 20.3616 20.6884 20.3743C20.6836 20.387 20.6814 20.4006 20.6821 20.4142C20.6828 20.4279 20.6864 20.4412 20.6925 20.4533C21.1425 21.331 21.6575 22.1666 22.2237 22.9601C22.2355 22.9764 22.2519 22.9885 22.2707 22.995C22.2895 23.0014 22.3097 23.0017 22.3287 22.9959C25.0216 22.1675 27.5581 20.8797 29.831 19.1871C29.8421 19.1791 29.8514 19.1689 29.8583 19.157C29.8652 19.1451 29.8695 19.1318 29.871 19.1181C30.496 12.6095 28.8235 6.95442 25.4349 1.94331C25.4266 1.92702 25.4128 1.91433 25.3961 1.90753ZM10.0253 15.6887C8.54785 15.6887 7.32914 14.3229 7.32914 12.6478C7.32914 10.9715 8.52411 9.60692 10.0253 9.60692C11.5378 9.60692 12.7452 10.983 12.7215 12.6478C12.7215 14.3242 11.5265 15.6887 10.0253 15.6887ZM19.9938 15.6887C18.5151 15.6887 17.2976 14.3229 17.2976 12.6478C17.2976 10.9715 18.4913 9.60692 19.9938 9.60692C21.5062 9.60692 22.7137 10.983 22.6899 12.6478C22.6899 14.3242 21.5075 15.6887 19.9938 15.6887Z" fill="black" fill-opacity="0.6"/>
</svg>
