<svg width="622" height="273" viewBox="0 0 622 273" fill="none" xmlns="http://www.w3.org/2000/svg">
<rect y="53" width="228" height="142" fill="#F5FA6A"/>
<path d="M25.65 186V64.5H33.9L72.6 158.85V64.5H82.5V186H74.4L35.55 90.6V186H25.65ZM103.58 186V64.5H147.23V73.05H114.98V118.8H141.83V127.2H114.98V186H103.58ZM176.441 186V73.35H153.491V64.5H210.191V73.35H187.841V186H176.441Z" fill="black"/>
<path d="M252.08 191V61.4H281.84C287.707 61.4 292.773 62.04 297.04 63.32C301.413 64.6 305.04 66.5733 307.92 69.24C310.8 71.9067 312.933 75.32 314.32 79.48C315.707 83.5333 316.4 88.3333 316.4 93.88C316.4 99.2133 315.707 103.853 314.32 107.8C313.04 111.64 311.013 114.68 308.24 116.92C305.573 119.16 302.107 120.6 297.84 121.24C303.067 122.413 307.28 124.44 310.48 127.32C313.68 130.093 316.027 133.72 317.52 138.2C319.12 142.573 319.92 147.853 319.92 154.04C319.92 159.587 319.28 164.653 318 169.24C316.72 173.827 314.693 177.72 311.92 180.92C309.253 184.12 305.787 186.627 301.52 188.44C297.36 190.147 292.4 191 286.64 191H252.08ZM270.16 178.04H282.32C290.427 178.04 295.813 176.173 298.48 172.44C301.253 168.6 302.64 162.467 302.64 154.04C302.64 148.6 301.893 144.067 300.4 140.44C299.013 136.707 296.72 133.933 293.52 132.12C290.427 130.2 286.213 129.24 280.88 129.24H270.16V178.04ZM270.16 115.48H280.88C286 115.48 290 114.787 292.88 113.4C295.76 111.907 297.787 109.56 298.96 106.36C300.133 103.16 300.72 99 300.72 93.88C300.72 87.9067 299.813 83.5867 298 80.92C296.187 78.2533 293.36 76.6 289.52 75.96C285.68 75.2133 280.667 74.84 274.48 74.84H270.16V115.48ZM336.946 191V61.4H354.706V191H336.946ZM375.674 191V61.4H387.994L424.794 147.48V61.4H439.834V191H428.314L391.034 102.52V191H375.674ZM491.085 192.6C482.978 192.6 476.472 190.893 471.565 187.48C466.765 183.96 463.245 178.893 461.005 172.28C458.872 165.667 457.805 157.72 457.805 148.44V105.08C457.805 95.5867 458.765 87.5333 460.685 80.92C462.712 74.2 466.232 69.08 471.245 65.56C476.365 62.04 483.458 60.28 492.525 60.28C500.632 60.28 507.138 61.6667 512.045 64.44C517.058 67.1067 520.685 71.2667 522.925 76.92C525.165 82.4667 526.285 89.5067 526.285 98.04V102.84H509.325V98.84C509.325 93.1867 508.952 88.6 508.205 85.08C507.458 81.4533 505.912 78.7867 503.565 77.08C501.325 75.2667 497.752 74.36 492.845 74.36C487.512 74.36 483.618 75.5867 481.165 78.04C478.818 80.4933 477.325 83.8533 476.685 88.12C476.152 92.28 475.885 97.0267 475.885 102.36V150.36C475.885 156.547 476.312 161.72 477.165 165.88C478.125 170.04 479.885 173.133 482.445 175.16C485.005 177.187 488.632 178.2 493.325 178.2C498.018 178.2 501.645 177.08 504.205 174.84C506.765 172.6 508.525 169.293 509.485 164.92C510.445 160.547 510.925 155.107 510.925 148.6V139.64H494.445V126.84H527.245V191H515.885L514.125 176.12C512.418 180.92 509.752 184.867 506.125 187.96C502.498 191.053 497.485 192.6 491.085 192.6ZM578.95 192.44C570.203 192.44 563.217 190.733 557.99 187.32C552.763 183.907 549.03 179.053 546.79 172.76C544.55 166.36 543.43 158.893 543.43 150.36V101.24C543.43 92.7067 544.55 85.4 546.79 79.32C549.137 73.1333 552.87 68.44 557.99 65.24C563.217 61.9333 570.203 60.28 578.95 60.28C587.697 60.28 594.63 61.9333 599.75 65.24C604.87 68.5467 608.55 73.24 610.79 79.32C613.137 85.4 614.31 92.7067 614.31 101.24V150.52C614.31 158.947 613.137 166.307 610.79 172.6C608.55 178.893 604.87 183.8 599.75 187.32C594.63 190.733 587.697 192.44 578.95 192.44ZM578.95 178.2C583.75 178.2 587.377 177.24 589.83 175.32C592.283 173.293 593.937 170.52 594.79 167C595.643 163.373 596.07 159.16 596.07 154.36V97.56C596.07 92.76 595.643 88.6533 594.79 85.24C593.937 81.72 592.283 79.0533 589.83 77.24C587.377 75.32 583.75 74.36 578.95 74.36C574.15 74.36 570.47 75.32 567.91 77.24C565.457 79.0533 563.803 81.72 562.95 85.24C562.097 88.6533 561.67 92.76 561.67 97.56V154.36C561.67 159.16 562.097 163.373 562.95 167C563.803 170.52 565.457 173.293 567.91 175.32C570.47 177.24 574.15 178.2 578.95 178.2Z" fill="black"/>
<path d="M149.04 228.44C151.413 228.44 153.4 228.667 155 229.12C156.627 229.573 157.84 230.32 158.64 231.36C159.467 232.4 159.88 233.787 159.88 235.52C159.88 236.64 159.667 237.64 159.24 238.52C158.84 239.373 158.227 240.093 157.4 240.68C156.6 241.24 155.613 241.627 154.44 241.84V242.04C155.64 242.227 156.72 242.573 157.68 243.08C158.667 243.587 159.44 244.307 160 245.24C160.56 246.173 160.84 247.387 160.84 248.88C160.84 250.613 160.44 252.093 159.64 253.32C158.84 254.52 157.693 255.44 156.2 256.08C154.733 256.693 152.973 257 150.92 257H140.88V228.44H149.04ZM149.76 240.6C152.213 240.6 153.893 240.213 154.8 239.44C155.707 238.64 156.16 237.467 156.16 235.92C156.16 234.347 155.6 233.227 154.48 232.56C153.387 231.867 151.627 231.52 149.2 231.52H144.48V240.6H149.76ZM144.48 243.6V253.96H150.24C152.773 253.96 154.533 253.467 155.52 252.48C156.507 251.493 157 250.2 157 248.6C157 247.587 156.773 246.707 156.32 245.96C155.893 245.213 155.16 244.64 154.12 244.24C153.107 243.813 151.72 243.6 149.96 243.6H144.48ZM169.936 257H166.416V226.6H169.936V257ZM195.368 246.24C195.368 248.027 195.128 249.613 194.648 251C194.195 252.36 193.528 253.52 192.648 254.48C191.795 255.44 190.741 256.173 189.488 256.68C188.261 257.16 186.888 257.4 185.368 257.4C183.955 257.4 182.648 257.16 181.448 256.68C180.248 256.173 179.208 255.44 178.328 254.48C177.448 253.52 176.755 252.36 176.248 251C175.768 249.613 175.528 248.027 175.528 246.24C175.528 243.867 175.928 241.867 176.728 240.24C177.528 238.587 178.675 237.333 180.168 236.48C181.661 235.6 183.435 235.16 185.488 235.16C187.435 235.16 189.141 235.6 190.608 236.48C192.101 237.333 193.261 238.587 194.088 240.24C194.941 241.867 195.368 243.867 195.368 246.24ZM179.168 246.24C179.168 247.92 179.381 249.387 179.808 250.64C180.261 251.867 180.955 252.813 181.888 253.48C182.821 254.147 184.008 254.48 185.448 254.48C186.888 254.48 188.075 254.147 189.008 253.48C189.941 252.813 190.621 251.867 191.048 250.64C191.501 249.387 191.728 247.92 191.728 246.24C191.728 244.533 191.501 243.08 191.048 241.88C190.595 240.68 189.901 239.76 188.968 239.12C188.061 238.453 186.875 238.12 185.408 238.12C183.221 238.12 181.635 238.84 180.648 240.28C179.661 241.72 179.168 243.707 179.168 246.24ZM209.547 257.4C207.654 257.4 205.96 257.013 204.467 256.24C203 255.467 201.84 254.267 200.987 252.64C200.16 251.013 199.747 248.933 199.747 246.4C199.747 243.76 200.187 241.613 201.067 239.96C201.947 238.307 203.134 237.093 204.627 236.32C206.147 235.547 207.867 235.16 209.787 235.16C210.88 235.16 211.934 235.28 212.947 235.52C213.96 235.733 214.787 236 215.427 236.32L214.347 239.24C213.707 239 212.96 238.773 212.107 238.56C211.254 238.347 210.454 238.24 209.707 238.24C208.267 238.24 207.08 238.547 206.147 239.16C205.214 239.773 204.52 240.68 204.067 241.88C203.614 243.08 203.387 244.573 203.387 246.36C203.387 248.067 203.614 249.52 204.067 250.72C204.52 251.92 205.2 252.827 206.107 253.44C207.014 254.053 208.147 254.36 209.507 254.36C210.68 254.36 211.707 254.24 212.587 254C213.494 253.76 214.32 253.467 215.067 253.12V256.24C214.347 256.613 213.547 256.893 212.667 257.08C211.814 257.293 210.774 257.4 209.547 257.4ZM223.646 242.48C223.646 242.907 223.619 243.467 223.566 244.16C223.539 244.853 223.512 245.453 223.486 245.96H223.646C223.806 245.747 224.046 245.44 224.366 245.04C224.686 244.64 225.006 244.24 225.326 243.84C225.672 243.413 225.966 243.067 226.206 242.8L233.046 235.56H237.166L228.486 244.72L237.766 257H233.526L226.086 247L223.646 249.12V257H220.166V226.6H223.646V242.48ZM250.133 257.4C248.239 257.4 246.546 257.013 245.053 256.24C243.586 255.467 242.426 254.267 241.573 252.64C240.746 251.013 240.333 248.933 240.333 246.4C240.333 243.76 240.773 241.613 241.653 239.96C242.533 238.307 243.719 237.093 245.213 236.32C246.733 235.547 248.453 235.16 250.373 235.16C251.466 235.16 252.519 235.28 253.533 235.52C254.546 235.733 255.373 236 256.013 236.32L254.933 239.24C254.293 239 253.546 238.773 252.693 238.56C251.839 238.347 251.039 238.24 250.293 238.24C248.853 238.24 247.666 238.547 246.733 239.16C245.799 239.773 245.106 240.68 244.653 241.88C244.199 243.08 243.973 244.573 243.973 246.36C243.973 248.067 244.199 249.52 244.653 250.72C245.106 251.92 245.786 252.827 246.693 253.44C247.599 254.053 248.733 254.36 250.093 254.36C251.266 254.36 252.293 254.24 253.173 254C254.079 253.76 254.906 253.467 255.653 253.12V256.24C254.933 256.613 254.133 256.893 253.253 257.08C252.399 257.293 251.359 257.4 250.133 257.4ZM264.272 235.52C264.272 236.027 264.245 236.547 264.192 237.08C264.165 237.613 264.125 238.093 264.072 238.52H264.312C264.765 237.773 265.338 237.16 266.032 236.68C266.725 236.2 267.498 235.84 268.352 235.6C269.205 235.333 270.085 235.2 270.992 235.2C272.725 235.2 274.165 235.48 275.312 236.04C276.485 236.573 277.365 237.413 277.952 238.56C278.538 239.707 278.832 241.2 278.832 243.04V257H275.352V243.28C275.352 241.547 274.965 240.253 274.192 239.4C273.418 238.547 272.205 238.12 270.552 238.12C268.952 238.12 267.698 238.427 266.792 239.04C265.885 239.627 265.232 240.507 264.832 241.68C264.458 242.827 264.272 244.24 264.272 245.92V257H260.752V226.6H264.272V235.52ZM293.598 235.2C296.211 235.2 298.145 235.773 299.398 236.92C300.651 238.067 301.278 239.893 301.278 242.4V257H298.718L298.038 253.96H297.878C297.265 254.733 296.625 255.387 295.958 255.92C295.318 256.427 294.571 256.8 293.718 257.04C292.891 257.28 291.878 257.4 290.678 257.4C289.398 257.4 288.238 257.173 287.198 256.72C286.185 256.267 285.385 255.573 284.798 254.64C284.211 253.68 283.918 252.48 283.918 251.04C283.918 248.907 284.758 247.267 286.438 246.12C288.118 244.947 290.705 244.307 294.198 244.2L297.838 244.08V242.8C297.838 241.013 297.451 239.773 296.678 239.08C295.905 238.387 294.811 238.04 293.398 238.04C292.278 238.04 291.211 238.213 290.198 238.56C289.185 238.88 288.238 239.253 287.358 239.68L286.278 237.04C287.211 236.533 288.318 236.107 289.598 235.76C290.878 235.387 292.211 235.2 293.598 235.2ZM294.638 246.64C291.971 246.747 290.118 247.173 289.078 247.92C288.065 248.667 287.558 249.72 287.558 251.08C287.558 252.28 287.918 253.16 288.638 253.72C289.385 254.28 290.331 254.56 291.478 254.56C293.291 254.56 294.798 254.067 295.998 253.08C297.198 252.067 297.798 250.52 297.798 248.44V246.52L294.638 246.64ZM311.42 235.56V257H307.9V235.56H311.42ZM309.7 227.52C310.233 227.52 310.7 227.707 311.1 228.08C311.527 228.427 311.74 228.987 311.74 229.76C311.74 230.507 311.527 231.067 311.1 231.44C310.7 231.813 310.233 232 309.7 232C309.113 232 308.62 231.813 308.22 231.44C307.82 231.067 307.62 230.507 307.62 229.76C307.62 228.987 307.82 228.427 308.22 228.08C308.62 227.707 309.113 227.52 309.7 227.52ZM328.533 235.16C331.093 235.16 333.026 235.787 334.333 237.04C335.639 238.267 336.293 240.267 336.293 243.04V257H332.813V243.28C332.813 241.547 332.426 240.253 331.653 239.4C330.879 238.547 329.666 238.12 328.013 238.12C325.639 238.12 323.999 238.787 323.093 240.12C322.186 241.453 321.733 243.373 321.733 245.88V257H318.213V235.56H321.053L321.573 238.48H321.773C322.253 237.733 322.839 237.12 323.533 236.64C324.253 236.133 325.039 235.76 325.893 235.52C326.746 235.28 327.626 235.16 328.533 235.16ZM353.81 257V228.44H357.41V253.8H369.89V257H353.81ZM392.946 246.24C392.946 248.027 392.706 249.613 392.226 251C391.773 252.36 391.106 253.52 390.226 254.48C389.373 255.44 388.32 256.173 387.066 256.68C385.84 257.16 384.466 257.4 382.946 257.4C381.533 257.4 380.226 257.16 379.026 256.68C377.826 256.173 376.786 255.44 375.906 254.48C375.026 253.52 374.333 252.36 373.826 251C373.346 249.613 373.106 248.027 373.106 246.24C373.106 243.867 373.506 241.867 374.306 240.24C375.106 238.587 376.253 237.333 377.746 236.48C379.24 235.6 381.013 235.16 383.066 235.16C385.013 235.16 386.72 235.6 388.186 236.48C389.68 237.333 390.84 238.587 391.666 240.24C392.52 241.867 392.946 243.867 392.946 246.24ZM376.746 246.24C376.746 247.92 376.96 249.387 377.386 250.64C377.84 251.867 378.533 252.813 379.466 253.48C380.4 254.147 381.586 254.48 383.026 254.48C384.466 254.48 385.653 254.147 386.586 253.48C387.52 252.813 388.2 251.867 388.626 250.64C389.08 249.387 389.306 247.92 389.306 246.24C389.306 244.533 389.08 243.08 388.626 241.88C388.173 240.68 387.48 239.76 386.546 239.12C385.64 238.453 384.453 238.12 382.986 238.12C380.8 238.12 379.213 238.84 378.226 240.28C377.24 241.72 376.746 243.707 376.746 246.24ZM405.685 254.52C406.218 254.52 406.765 254.48 407.325 254.4C407.885 254.293 408.338 254.187 408.685 254.08V256.76C408.312 256.947 407.778 257.093 407.085 257.2C406.392 257.333 405.725 257.4 405.085 257.4C403.965 257.4 402.925 257.213 401.965 256.84C401.032 256.44 400.272 255.76 399.685 254.8C399.098 253.84 398.805 252.493 398.805 250.76V238.28H395.765V236.6L398.845 235.2L400.245 230.64H402.325V235.56H408.525V238.28H402.325V250.68C402.325 251.987 402.632 252.96 403.245 253.6C403.885 254.213 404.698 254.52 405.685 254.52ZM420.138 254.52C420.671 254.52 421.218 254.48 421.778 254.4C422.338 254.293 422.791 254.187 423.138 254.08V256.76C422.765 256.947 422.231 257.093 421.538 257.2C420.845 257.333 420.178 257.4 419.538 257.4C418.418 257.4 417.378 257.213 416.418 256.84C415.485 256.44 414.725 255.76 414.138 254.8C413.551 253.84 413.258 252.493 413.258 250.76V238.28H410.218V236.6L413.298 235.2L414.698 230.64H416.778V235.56H422.978V238.28H416.778V250.68C416.778 251.987 417.085 252.96 417.698 253.6C418.338 254.213 419.151 254.52 420.138 254.52ZM435.711 235.16C437.551 235.16 439.125 235.56 440.431 236.36C441.765 237.16 442.778 238.293 443.471 239.76C444.191 241.2 444.551 242.893 444.551 244.84V246.96H429.871C429.925 249.387 430.538 251.24 431.711 252.52C432.911 253.773 434.578 254.4 436.711 254.4C438.071 254.4 439.271 254.28 440.311 254.04C441.378 253.773 442.471 253.4 443.591 252.92V256C442.498 256.48 441.418 256.827 440.351 257.04C439.285 257.28 438.018 257.4 436.551 257.4C434.525 257.4 432.725 256.987 431.151 256.16C429.605 255.333 428.391 254.107 427.511 252.48C426.658 250.827 426.231 248.813 426.231 246.44C426.231 244.093 426.618 242.08 427.391 240.4C428.191 238.72 429.298 237.427 430.711 236.52C432.151 235.613 433.818 235.16 435.711 235.16ZM435.671 238.04C433.991 238.04 432.658 238.587 431.671 239.68C430.711 240.747 430.138 242.24 429.951 244.16H440.871C440.871 242.933 440.685 241.867 440.311 240.96C439.938 240.053 439.365 239.347 438.591 238.84C437.845 238.307 436.871 238.04 435.671 238.04ZM460.009 235.16C460.409 235.16 460.836 235.187 461.289 235.24C461.769 235.267 462.183 235.32 462.529 235.4L462.089 238.64C461.743 238.56 461.356 238.493 460.929 238.44C460.529 238.387 460.143 238.36 459.769 238.36C458.943 238.36 458.156 238.533 457.409 238.88C456.663 239.227 455.996 239.72 455.409 240.36C454.823 240.973 454.356 241.72 454.009 242.6C453.689 243.48 453.529 244.467 453.529 245.56V257H450.009V235.56H452.889L453.289 239.48H453.449C453.903 238.68 454.449 237.96 455.089 237.32C455.729 236.653 456.463 236.133 457.289 235.76C458.116 235.36 459.023 235.16 460.009 235.16ZM463.173 235.56H466.933L471.573 247.76C471.839 248.48 472.079 249.173 472.293 249.84C472.533 250.507 472.746 251.16 472.933 251.8C473.119 252.413 473.266 253.013 473.373 253.6H473.533C473.693 252.933 473.946 252.067 474.293 251C474.639 249.907 474.999 248.813 475.373 247.72L479.733 235.56H483.533L474.293 259.96C473.786 261.293 473.186 262.453 472.493 263.44C471.826 264.453 470.999 265.227 470.013 265.76C469.053 266.32 467.879 266.6 466.493 266.6C465.853 266.6 465.293 266.56 464.813 266.48C464.333 266.427 463.919 266.36 463.573 266.28V263.48C463.866 263.533 464.213 263.587 464.613 263.64C465.039 263.693 465.479 263.72 465.933 263.72C466.759 263.72 467.466 263.56 468.053 263.24C468.666 262.947 469.186 262.507 469.613 261.92C470.039 261.36 470.399 260.693 470.693 259.92L471.813 257.08L463.173 235.56Z" fill="black"/>
</svg>
